<?xml version="1.0" encoding="UTF-8"?>
<svg id="Layer_2" data-name="Layer 2" xmlns="http://www.w3.org/2000/svg" viewBox="0 0 58.5 23.7">
  <defs>
    <style>
      .cls-1 {
        fill: #1d3e74;
      }

      .cls-2 {
        fill: #f4ece2;
      }
    </style>
  </defs>
  <g id="Layer_1-2" data-name="Layer 1">
    <g>
      <g>
        <path class="cls-1" d="M12.34,10.26c-.04-.1-.28-.68-.91-.92-.41-.16-.78-.09-.93-.06.29-1.53.52-3.24.63-5.1.05-.81.06-1.59.06-2.34-.1-.33-.37-.57-.7-.64-.47-.1-.81.21-.84.24-.14.3-.36.76-.63,1.31-1.29,2.62-2.02,3.67-2.66,4.45-.53.66-1.09,1.35-1.35,1.23-.39-.19.05-2.29.67-3.94.67-1.81,1.4-2.69,1-3.58-.22-.49-.68-.76-1.01-.91-.03,0-.12,0-.21.07-.1.08-.12.18-.13.21-.49,2.18-1.34,4.25-1.77,6.45-.19.57-.25,1.23-.13,1.81.14.73,1.51,1.54,2.22,1.57.43-.27.91-.62,1.38-1.06,1.3-1.22,1.97-2.58,2.31-3.49.04.54.04,1.22-.07,2-.11.79-.31,1.46-.5,1.97-.52.19-1.03.38-1.55.58-.49.22-1.18.55-1.95,1.05-1.05.67-2.1,1.35-2.9,2.62-.33.52-.79,1.27-.85,2.35-.03.56-.11,1.84.83,2.67.92.8,2.14.61,2.35.57,1.98-.21,3.6-1.84,4.17-3.69.58-1.52.87-3.37,1.23-4.96.27-.12.63-.26,1.06-.35.46-.1.86-.12,1.18-.11ZM8.41,11.33c-.2.83-.37,1.62-.61,2.44-.42,1.42-1.05,2.99-2.5,3.97-.26.18-1.31.89-1.86.52-.47-.32-.39-1.3-.36-1.72.04-.47.15-.84.25-1.09,1-2,3.02-3.49,5.09-4.33v.21Z"/>
        <path class="cls-1" d="M16.36,13.46c0-.15.02-.29.03-.45l-.48.41c-.74.61-1.74,1.26-2.69,1.26s-1.34-.61-1.29-1.4c.09-1.8,1.08-3.52,2.15-5.06.15-.22.35-.31.54-.31.37,0,.74.32.74.71,0,.12-.05.26-.14.4-.74,1.04-1.8,2.8-1.8,3.87,0,.09.02.18.03.26,1.51-.26,3.3-2.37,4.07-3.67.31-.52.57-1.08.88-1.52.17-.25.4-.34.61-.34.37,0,.69.28.69.65,0,.12-.03.28-.12.41l-.38.63c-.61,1.14-1.41,3.21-1.44,4.04.91-.18,1.6-.63,2.44-1.38.14-.12.26-.17.35-.17.25,0,.41.29.41.63,0,.26-.09.57-.32.8-.63.65-1.95,1.54-3.15,1.54-.83,0-1.14-.54-1.14-1.32Z"/>
        <path class="cls-1" d="M16.04,6.69c-.45,0-.89-.37-.89-.83,0-.08,0-.15.03-.23.05-.18.14-.37.25-.54.17-.31.45-.43.71-.43.48,0,.94.4.86.98,0,.08-.15.49-.18.55-.18.35-.48.49-.77.49Z"/>
        <path class="cls-1" d="M19.67,6.7c-.46,0-.91-.37-.91-.83,0-.08,0-.15.03-.23.06-.18.15-.37.26-.54.17-.31.45-.45.71-.45.48,0,.94.41.86,1,0,.08-.15.49-.18.55-.18.35-.48.49-.77.49Z"/>
        <g>
          <path class="cls-2" d="M26.23,17.82c0-.12.02-.22.06-.34.42-1.27.16-.57.99-2.69-.71.4-1.5.63-2.31.61-2.47-.08-3.56-1.78-3.56-3.99,0-.95.2-2.02.59-3.08,1.23-3.5,4.51-7,8.44-7,1.38,0,2.79.65,2.97,2.29.1.91-.42,1.78-.87,2.27-.22.24-.49.34-.73.34-.49,0-.93-.38-.93-.83,0-.18.08-.38.24-.57.36-.4.45-.63.42-.97-.02-.45-.75-.71-1.11-.71-3.99,0-7.18,5.16-7.18,8.21,0,1.27.57,2.21,1.88,2.21s3.38-1.01,4.55-3.86c-.81.04-1.68.12-2.59.3-.06.02-.14.02-.2.02-.57,0-.89-.47-.89-.93,0-.4.22-.77.75-.87,1.27-.24,2.85-.45,4.37-.45.85,0,1.68.06,2.43.22.51.12.73.47.73.83,0,.49-.4.99-1.11.95-.26-.02-.55-.04-.83-.04s-.57.02-.89.08c-1.23,2.61-2.57,5.81-3.44,8.23-.16.42-.49.63-.83.63-.47,0-.95-.34-.95-.87Z"/>
          <path class="cls-2" d="M34.59,11.03c0-.34.02-.7.05-1.06.5-4.78,4.55-8.54,8.43-8.54,1.4,0,2.08.43,2.31.93.07.16.11.32.11.48,0,.55-.41,1.07-.84,1.07-.21,0-.43-.14-.61-.47-.07-.13-.34-.41-1.13-.41-3.26,0-6.3,3.45-6.66,6.93-.04.3-.05.59-.05.88,0,3.01,1.83,4.26,4.28,4.26,3.38,0,5.67-3.67,5.67-6.3,0-1.5-.73-2.67-2.4-2.67-1.18,0-1.99.81-2.11,1.97-.09.79.55,1.22.82,1.22.23,0,.52-.04.75-.14.18-.39.45-.55.7-.55.41,0,.81.41.81.89,0,.41-.3.89-1.16,1.2-.41.14-.88.21-1.25.21-1.13,0-2.45-1.15-2.27-2.83.21-1.99,1.74-3.58,3.88-3.58,2.65,0,3.81,1.83,3.81,4.08,0,3.54-2.9,8.11-7.43,8.11-3.22,0-5.71-1.83-5.71-5.69Z"/>
        </g>
        <path class="cls-1" d="M51.29,11.43c0-.3.05-.68.16-1.06l.46-1.52-1.63.05c-.81,0-1.22-.6-1.22-1.22s.38-1.19,1.16-1.22c.76-.03,1.65-.11,2.57-.16.49-1.3.98-2.38,1.54-3.39.22-.41.54-.57.89-.57.19,0,.38.05.57.16.35.19.6.51.6.92,0,.16-.05.35-.16.54-.35.62-.7,1.41-1.03,2.25l.87-.03c.49,0,.92.03,1.3.08.76.11,1.11.65,1.11,1.22s-.43,1.22-1.33,1.22l-2.9.05-.54,1.65c-.41,1.35-.7,2.19-1.95,2-.3-.05-.49-.43-.49-1Z"/>
      </g>
      <path class="cls-2" d="M0,23.7c6.31-3.53,13.67-4.82,20.84-4.5,2.38.07,4.77.37,7.13.5,4.71.28,9.44-.26,14.03-1.32,4.63-1.07,9.1-2.71,13.46-4.59-6.29,3.45-13.18,5.94-20.33,6.76-2.39.27-4.81.35-7.22.22-2.39-.15-4.73-.44-7.12-.56-5.16-.3-10.36.13-15.35,1.53-.39.11-1.73.55-2.12.67-.94.35-2.41.89-3.32,1.3h0Z"/>
    </g>
  </g>
</svg>