<?xml version="1.0" encoding="UTF-8"?>
<svg id="Layer_2" data-name="Layer 2" xmlns="http://www.w3.org/2000/svg" viewBox="0 0 126.99 146.96">
  <defs>
    <style>
      .cls-1 {
        fill: #1d3e74;
      }

      .cls-2 {
        fill: #f4ece2;
      }

      .cls-3 {
        fill: #ebb163;
      }
    </style>
  </defs>
  <g id="Layer_1-2" data-name="Layer 1">
    <g>
      <g>
        <path class="cls-1" d="M4.45,96.68c-.4.29-.79.62-1.17.99.38-.38.78-.7,1.17-.99Z"/>
        <path class="cls-1" d="M19.6,99.92c.64.79,2.66,3.66,1.75,6.84-.31,1.08-.92,2.11-1.64,2.77l-.46.43-.02.63c-.02.43-.13.87-.34,1.31-.57,1.18-1.75,2.18-3.01,2.54-.39.11-.79.17-1.19.17-1.13,0-2.09-.43-2.7-.79l-.59-.35-.65.21c-.3.09-.62.14-.97.14-.53,0-1.08-.11-1.58-.31-.7-.27-1.31-.7-1.84-1.33l-.46-.54-.71.02h-.03c-2.01,0-3.11-3.06-3.24-3.41-1.07-3.14-.08-7.04,2.4-9.49.4-.4.85-.76,1.35-1.09l.68-.45v-.82c0-.46.17-.93.51-1.33.81-.98,3-1.99,5.26-1.99.21,0,.44,0,.65.02,2.81.24,5.1,2.02,5.82,3.21.36.6.47,1.2.31,1.78l-.22.8.55.62c.12.13.24.27.36.41Z"/>
        <path class="cls-1" d="M34.43,124.95c.22-.22.46-.41.69-.56-.23.17-.46.35-.69.56Z"/>
        <path class="cls-1" d="M37.17,123.5c-.35.07-.7.18-1.02.32-.22.09-.45.21-.68.34.23-.14.46-.25.68-.35.32-.13.67-.24,1.02-.31Z"/>
        <path class="cls-1" d="M39.87,122.08c-.31.17-.6.36-.87.58.27-.22.56-.41.87-.58Z"/>
        <path class="cls-1" d="M49.02,132.9c.17.03.34.07.51.12-.17-.04-.33-.08-.51-.12h0Z"/>
        <path class="cls-1" d="M51.8,130.17c-1.01.6-1.85.99-2.4,1.23h0c.55-.25,1.39-.65,2.4-1.23Z"/>
        <path class="cls-1" d="M52.99,129.43c-.41.28-.82.53-1.19.74.37-.22.78-.47,1.19-.74Z"/>
        <path class="cls-1" d="M81.33,47.71c-.24-.22-.5-.44-.75-.65.26.21.51.42.75.65.2.18.41.37.63.58-.22-.2-.43-.39-.63-.57Z"/>
        <polygon class="cls-1" points="87.36 73.23 84.99 58.22 87.37 73.23 87.36 73.23"/>
        <path class="cls-1" d="M88.9,82.93h0c.34.08.71.17,1.12.26-.41-.08-.78-.17-1.12-.26Z"/>
        <path class="cls-1" d="M91.92,139.1s.05-.03.07-.06c-.03.02-.05.05-.07.07h0Z"/>
        <path class="cls-1" d="M98.62,19.73c-.65,0-1.27.09-1.85.27.59-.18,1.21-.28,1.85-.28,1.27,0,2.58.36,3.86.99-1.28-.62-2.6-.98-3.86-.98Z"/>
        <path class="cls-1" d="M105.2,75.14c.21.17.77.65,1.57,1.15-1.1,1.3-3.14,3.33-6.28,4.65-6.27,2.64-12.11.41-13.45-.13.94,5.99,1.89,11.98,2.84,17.97l.25,1.58.42-.09.55,1.26c.61,1.37.83,2.85.63,4.29-.49,3.52-3.21,5.38-4.04,5.87l-.23.14-.27.06c-6.03,1.31-12.06,2.6-18.09,3.91,1.38,1.59,2.89,3.55,4.35,5.89,1.3,2.1,2.31,4.1,3.09,5.88.17.22.84,1.01,1.99,1.22,1.58.29,2.74-.74,2.87-.86,2.52-5.92,6.72-9.61,10.97-9.61.22,0,.45,0,.67.03,1.45.14,2.84.74,4.15,1.78.38.3.6.74.64,1.22l.04.6.43.41c.22.2.39.43.53.67.49.85.51,1.94.07,3.07l-.1.25v.26c0,.15-.03.3-.07.44l-.57,1.87c-.06.19-.15.37-.27.54l-.16.2-.07.25c-.05.16-.12.3-.19.41l-1.24,1.89c-.05.07-.11.15-.18.23l-.19.21-.11.26c-.07.17-.17.34-.29.48l-1.51,1.75c-.13.15-.3.28-.49.38l-.22.12-.17.17s-.02.02-.02.02l-1.83,1.9s-.12.11-.21.17l-.2.15-.13.2c-.1.13-.21.25-.33.35l-1.66,1.33-.23.18-.15.26c-.07.13-.17.26-.26.36l-1.38,1.4c-.07.07-.15.13-.24.2l-.23.16-.16.24c-.12.17-.26.31-.42.44l-1.45,1.04c-.29.21-.63.31-.98.32h0s-.04,0-.07,0l-.5-.02-.41.28c-.44.3-.94.46-1.46.46-.48,0-.96-.14-1.37-.39-.07-.04-.12-.08-.19-.13l-.4-.3h-.5c-2.17-.02-2.96-3.55-3.16-4.63l-.11-.61-.51-.36c-.49-.35-.85-.98-1.08-1.89-.2-.81-.34-2.07-.16-3.37.26-.22.34-.59.18-.9h0c-.07-.14-.41-.82-.94-1.84-.17-.31-6.21-11.8-9.23-13.31-.25-.12-.87-.44-1.58-.28-.6.14-.99.55-1.15.71-.55.58-.7,1.24-.74,1.4-.47,1.79-3.5,5.72-6.75,8.17-1.34,1.01-3.19,2-3.77,2.28-.66.32-1.07.47-1.08.47-.12.04-.22.12-.31.2-.18.2-.25.5-.16.77.02.07.07.14.12.2h0c-.05.28-.12.61-.26.96l-.61,1.65,1.73.36c.55.11,1.08.29,1.56.54,2.28,1.16,4.2,4.1,3.42,6.64-.76,2.46-3.47,3.27-5.44,3.67-.69.14-1.39.21-2.1.21-2.93,0-5.25-1.15-6.39-1.85-3.94-2.4-6.46-7.11-6.28-11.72.14-3.53,1.26-5.83,3.23-6.66.48-.2,1-.31,1.54-.31h.67s.45-.51.45-.51c.71-.82,1.65-1.33,2.65-1.45.15-.02.3-.02.44-.02,1.64,0,2.81,1.03,3.24,1.48,0,.05.02.09.03.13.06.14.16.25.27.33.12.08.27.13.43.13.09,0,.19-.02.29-.06.05-.02.14-.07.26-.12.26-.12.37-.17.52-.24,3.16-1.5,4.74-2.95,4.74-2.95,1.09-1.01,2.05-2.3,1.84-2.56-.14-.17-.69.2-1.99.48-.64.14-1.17.2-1.52.22-.03,0-.07.02-.1.02h-.1c-.65.07-1.32.1-1.98.1-.89,0-1.79-.06-2.67-.17-2.06-.26-6.88-.88-10.15-4.62-2.13-2.42-2.95-5.72-2.73-7.16.06-.32.16-.62.31-.87l.31-.55-.17-.61c-.03-.12-.06-.22-.07-.3h0c-.07-.4-1.32-7.89-3.3-19.75-1.56-.02-6.21.16-10.06,3.54-1.34,1.18-2.25,2.45-2.85,3.51-1.19-.69-2.62-1.21-4.12-1.33-.26-.02-.51-.03-.78-.03-.37,0-.75.02-1.14.07.6-1.08,1.67-2.8,3.34-4.54,1.98-2.05,3.92-3.24,4.9-3.77,3.91-2.17,7.7-2.54,9.86-2.57-.71-4.28-1.5-8.99-2.33-14.03l-.16-.94-.14-.84-.06-.02-.18-.89c-2.72-13.37-4.1-22.77-3.97-27.19.02-.68.07-1.31.16-1.88.55-3.62,2.25-5.85,5.64-10.29l.52-.7c.66-.87,1.75-2.29,3.17-4.18l.59-.77-.46-.85-.66-1.24-.17-.3-.27-.21c-.17-.12-.32-.25-.46-.4-1.41-1.37-1.8-3.47-1.92-4.16-.24-1.29-.37-3.17.36-4.77.71-1.56,2.04-2.19,3.26-2.61,1.43-.5,3.53-.94,7.01-1.69l.3-.06c2.95-.63,5.73-1.22,7.86-1.22,1.83,0,3.12.49,3.83,1.46.19.25.6.89.95,1.68.36.8.62,1.65.77,2.5.18,1,.28,2.55,0,3.65-.1.37-.23.7-.42,1-.03.04-.46.67-.19,1.38.22.55.78.92,1.4.91,1.56.08,3.09.21,4.55.37,5.88.65,7.92,1.52,9.46,2.79,1.11.91,2.02,2.06,2.72,3.41l.07.13c.55,1.79,6.63,21.56,8.02,26.08l.15.49.41.29c.5.36.97.75,1.41,1.16,1.51,1.37,3.38,3.08,3.68,5.73.12,1.03-.03,2.09-.42,3.14l-.14.37.07.39,2.33,14.67c.06.28.12.57.19.85.4.25,8.18,4.79,14.01,1.09.84-.53,1.89-1.4,2.85-2.84.64,1.14,1.48,2.14,2.33,2.9Z"/>
        <path class="cls-1" d="M106.62,23.7c-1.28-1.24-2.69-2.28-4.13-2.99,1.44.7,2.85,1.74,4.13,2.99Z"/>
        <path class="cls-1" d="M121.92,68.44l-1.14.65.48,1.22,2.04,5.18.03.1c.47,1.81-.33,3.71-1.91,4.49-.49.25-1.04.38-1.61.38-1.65,0-3.16-1.06-3.76-2.64-.17-.44-.33-.89-.5-1.33l-.61-1.6-1.51.79c-.19.1-.38.19-.58.26-.48.17-1,.26-1.54.26-2.52,0-4.84-1.99-5.1-2.22-1.71-1.52-3.36-4.1-2.84-6.79.16-.82.45-1.45.87-1.85l.65-.65-.27-.89c-.78-2.52-1.26-5.91.89-7.78.17-.15.37-.29.59-.41l1-.6-.33-1.13c-.54-1.81-1.42-4.25-2.27-5.69l-.31-.53-.59-.17c-3.19-.89-5.88-3.81-6.38-4.39-1.89-2.17-3.24-5.01-3.89-8.22-.56-2.76-.58-5.69-.04-8.07.42-1.88,1.37-4.3,3.5-5.24.56-.24,1.17-.36,1.83-.36,1.98,0,4.3,1.13,6.55,3.17,2.16,1.97,3.97,4.54,4.96,7.05,1.57,3.97,1.68,9.11.27,12.5l-.23.56.22.57,1.81,4.67.51,1.31,1.33-.41c.61-.18,1.22-.28,1.79-.28.21,0,.41.02.6.03,1.86.21,3.28,1.13,3.81,2.45.09.25.16.51.19.79l.1.79.7.36c.65.34,1.21.85,1.62,1.49l.08.13.06.15c.39.94.51,1.83.36,2.66l-.19,1.04.93.53c.39.22.7.52.94.89,1.26,1.92-.32,4.88-2.58,6.44-.16.12-.34.22-.54.33Z"/>
      </g>
      <g>
        <path class="cls-2" d="M39.85,65.34c13.91-2.45,27.82-4.91,41.72-7.36.82-1.49.79-2.68.73-3.23-.23-2.02-1.74-3.4-3.14-4.67-.82-.75-1.59-1.27-2.12-1.6-2.77-9.01-5.54-18.01-8.31-27.02-.4-.78-1.1-1.9-2.29-2.88-1.13-.93-2.72-1.76-8.57-2.41-1.78-.2-4.16-.4-6.99-.47-.13-.26-.28-.52-.45-.8-.2-.33-.39-.62-.59-.9-2.07.93-4.75,1.91-7.94,2.6-3.27.7-6.18.9-8.48.9.13.25.34.72.38,1.33.04.59-.09,1.05-.19,1.31-2.03,2.68-3.45,4.55-4.08,5.38-3.39,4.45-4.96,6.48-5.45,9.7-.04.24-.12.82-.14,1.67-.17,6.11,2.75,20.94,3.94,26.81,1.33.54,3,1.09,4.98,1.44,2.8.49,5.21.41,6.99.21ZM52.25,20.51c.05-.27,1.39-.34,2.37-.39.85-.04,1.71-.03,2.54.03,1.6.19,3.11.7,4.49,1.51,2.21,1.3,3.51,3.06,4.22,4.31,0,0,.08.16.15.32.28.62,1.13,2.52,4.53,15.84.13.82.12,1.65-.02,2.45-.06.33-.16.88-.4,1.41-.6,1.32-1.97,2.28-3.97,2.8-1.6.41-3.03.23-3.17.09.07-.06.35-.14.62-.22.85-.25,2.44-.71,3.68-1.98.62-.63,1.1-1.4,1.44-2.3l.05-.12h-.13c-.94-.05-1.84-.23-2.68-.54-.66-.24-1.17-.52-1.36-.63-1.1-.6-2.09-1.39-2.92-2.33l-.24-.27-6.41-18.48v-.04s-.05-.02-.05-.02c-2.6-1-2.74-1.38-2.72-1.47ZM34.43,32.66c.04-.18,1.74-7.83,1.81-8.15.05-.2.25-.33.45-.29.2.05.33.25.29.45-.61,2.75-1.77,7.98-1.8,8.13-.04.18-.19.3-.37.3-.02,0-.05,0-.07,0-.21-.04-.34-.24-.3-.44ZM34.44,35.66c.21-.04.4.1.44.3l4.94,27.45c.04.21-.1.4-.31.44-.02,0-.04,0-.05,0-.19,0-.35-.12-.39-.31l-4.94-27.45c-.04-.21.1-.4.31-.44ZM29.25,62.29s-.03,0-.05,0c-.19,0-.35-.13-.39-.32l-3.83-22.91c-.03-.21.11-.4.31-.43.21-.04.4.1.43.31l3.83,22.91c.04.21-.1.4-.31.44Z"/>
        <path class="cls-2" d="M60.92,35.31c.53,1.58.99,2.85,2.09,4.18,1.04,1.26,2.1,1.88,2.39,2.05,1.34.77,2.6.99,3.34,1.06-1.52-5.98-3.51-13.56-4.4-15.56-.06-.13-.12-.26-.12-.26-1.07-2.17-2.96-3.26-3.46-3.54-1.5-.84-2.93-1.05-3.8-1.1.8,2.41,1.37,4.38,1.74,5.7.44,1.56,1.13,4.16,2.23,7.47ZM60.11,24.4c1.3.72,2.33,1.78,2.92,2.97h0s.05.11.1.22c.43.97,1.44,4.08,3.79,13.23-.3-.12-.59-.26-.87-.42-.41-.24-1.22-.78-2.03-1.75-.94-1.13-1.34-2.22-1.85-3.75-.96-2.86-1.61-5.22-2.04-6.78-.06-.22-.12-.43-.17-.62-.34-1.2-.69-2.42-1.07-3.63.42.14.83.32,1.22.54Z"/>
        <path class="cls-2" d="M31.5,14.82c1.15,1.13,2.86,1.04,10.48-.69,6.54-1.48,8.7-2.18,9.11-3.75.16-.6.18-1.8-.02-2.93-.16-.92-.45-1.65-.65-2.1-.33-.73-.68-1.25-.77-1.37-1.1-1.49-5.52-.54-10.03.42-6.97,1.49-8.6,1.82-9.32,3.4-.66,1.45-.31,3.37-.24,3.75.1.53.42,2.25,1.44,3.26ZM48.43,5.29s.06,0,.08,0c.24,0,.46.18.5.42l.7,4.3c.05.28-.14.53-.42.58-.27.05-.53-.14-.58-.42l-.7-4.3c-.05-.27.14-.53.42-.58ZM45.66,5.74s.05,0,.08,0c.24,0,.46.17.5.42l.7,4.3c.05.28-.14.53-.42.58-.28.05-.53-.14-.58-.42l-.7-4.3c-.05-.27.14-.53.42-.58ZM42.88,6.23s.05,0,.08,0c.24,0,.46.18.5.42l.7,4.3c.04.27-.14.53-.42.58-.28.05-.53-.14-.58-.42l-.7-4.3c-.04-.28.14-.53.42-.58ZM40.11,6.71s.05,0,.08,0c.24,0,.46.18.5.42l.7,4.3c.05.27-.14.53-.42.58-.27.05-.53-.14-.58-.42l-.7-4.3c-.05-.28.14-.53.42-.58ZM37.34,7.2s.05,0,.08,0c.24,0,.46.17.5.42l.7,4.3c.05.28-.14.53-.42.58-.27.05-.53-.14-.58-.42l-.7-4.3c-.05-.27.14-.53.42-.58ZM34.57,7.72s.05,0,.08,0c.24,0,.46.17.5.42l.7,4.3c.05.28-.14.53-.42.58-.28.05-.53-.14-.58-.42l-.7-4.3c-.05-.27.14-.53.42-.58ZM31.79,8.24s.05,0,.08,0c.24,0,.46.17.5.42l.7,4.3c.04.28-.14.53-.42.58-.28.05-.53-.14-.58-.42l-.7-4.3c-.04-.27.14-.53.42-.58Z"/>
        <path class="cls-2" d="M72.66,95.3c-1.22-1.6-4.03-2.09-5.91-1.7-1.04.22-2.11.83-2.73,1.7,2.62,2.11,6.09,2.35,8.64,0Z"/>
        <path class="cls-2" d="M73.63,73.43c-.28.92-1.55,1.11-1.57,2.11.62.1,1.36.12,1.91.44.17.1.82.84.83.93l.47,4.71,1.26-.46c.08-3.45-.43-7.19-1.75-10.39-.69-1.68-2.75-5.41-5.03-3.96-1.09.7.75,1.35,1.36,1.9.94.83,2.88,3.49,2.51,4.72Z"/>
        <path class="cls-2" d="M58.65,77.22c.18,1.17-2.45,1.63-2.06,2.82.79-.22,2.47.07,2.87.82.79,1.53.68,4.21.75,5.91l1.18-.14c.54-2.91.04-6.28-.77-9.11-.58-2.01-2.26-6.41-4.67-6.62-.69-.06-1.7.26-1.65,1.07,1.72.92,4.05,3.28,4.35,5.25Z"/>
        <path class="cls-2" d="M14.13,98.15c.14-.46,2.9.36,3.14-.21.24-.57-1.96-2.64-4.63-2.87-2.41-.21-4.67,1.14-4.58,1.64.09.5,2.47.23,2.55.72.09.55-2.94.69-5.09,2.81-2.08,2.06-2.8,5.33-1.98,7.73.41,1.21,1.28,2.37,1.68,2.25.53-.16.18-2.48.55-2.55.47-.09.81,3.66,3.04,4.53.68.26,1.51.26,1.7-.07.22-.38-.59-.95-.64-2.14-.02-.5.09-1.18.32-1.22.45-.08.59,2.41,2.41,3.7.27.19,1.48,1,2.8.62,1.33-.38,2.38-1.84,2.07-2.6-.12-.3-.48-.53-.82-.56-.71-.07-1.08.76-1.44.64-.39-.14-.44-1.28-.21-2.24.31-1.33,1.26-2.74,1.8-2.6.72.19.16,2.98.94,3.2.56.16,1.61-1.05,1.98-2.35.73-2.53-1.18-4.97-1.45-5.31-1.75-2.18-4.28-2.68-4.14-3.12Z"/>
        <path class="cls-2" d="M110.98,64.09c-.38-.03-1.51-.17-2.44-1.08-.84-.82-1.33-2.08-1.06-2.3.44-.36,2.47,2.49,4.23,1.91.69-.23,1.01-.87,1.1-1.04.66-1.31-.17-3.08-1.24-3.98-1.42-1.2-3.75-1.3-4.94-.27-2.2,1.91.04,7.25.3,7.84,1.23,2.84,3.09,4.39,2.74,4.76-.26.28-1.63-.27-2.53-1.24-.98-1.05-1.12-2.27-1.54-2.23-.36.03-.55.97-.57,1.06-.36,1.87.87,3.93,2.3,5.2.12.11,2.79,2.42,4.92,1.63.43-.16,1.06-.52,1.03-.87-.02-.27-.43-.33-1.04-.88-.06-.06-.82-.74-.71-.94.17-.29,2.05.93,2.5.46.42-.44-.7-1.88-1.79-4.37-.65-1.5-1.03-2.8-1.26-3.66Z"/>
        <path class="cls-2" d="M119.08,69.44c-1.33-.11-2.08-.57-2.51-.96-.76-.68-.67-1.26-1.63-2.55-.71-.96-1.75-1.98-2.02-1.81-.21.13.09.95.26,1.4,1.43,3.92,2.98,7.8,4.45,11.7.5,1.32,1.98,1.86,3.01,1.35.83-.42,1.3-1.49,1.03-2.55l-2.58-6.58Z"/>
        <path class="cls-2" d="M123.62,62.61c-.61-.94-2.84-.72-4.28.14-1.83,1.09-3,3.58-2.27,4.53.68.89,2.98.43,4.42-.57,1.5-1.03,2.77-3.12,2.12-4.11Z"/>
        <path class="cls-2" d="M114.09,59.44c.14.29.38.91.33,1.72-.04.75-.31,1.3-.47,1.58.47.51.94,1.02,1.42,1.53,1.2-1.57,2.42-2.45,3.35-2.97,1.3-.73,2.44-.98,2.86-2.01.3-.74.09-1.53-.14-2.1-.16-.25-.52-.73-1.16-.99-.68-.28-1.29-.15-1.65-.07-2.07.44-4.24,2.97-4.53,3.3Z"/>
        <path class="cls-2" d="M110.41,55.31s0,0,0,0c.03,0,.61.35,1.77,1.04.41.24.92.75,1.31,1.93l5.2-3.68c.07-.28.13-.7-.04-1.13-.46-1.17-2.2-1.36-2.41-1.38-3.02-.33-5.89,3.15-5.84,3.22Z"/>
        <path class="cls-2" d="M108.82,54.96l2.58-2.58-3.12-8.03c1.81-2.73,1.89-8.18.27-12.27-2.16-5.47-8.03-10.25-11.08-8.92-3.71,1.62-4.3,12.73,1.03,18.84,1.43,1.65,4.12,3.87,6.51,4.05,2.11,2.16,3.81,8.91,3.81,8.91ZM102.66,42.56c-.07.11-.19.17-.32.17-.07,0-.14-.02-.21-.06-1.58-1.03-2.89-2.32-3.9-3.82-3.39-5.1-2.03-10.99-1.53-12.67.06-.2.27-.31.47-.25s.31.27.25.47c-.47,1.6-1.77,7.21,1.44,12.04.95,1.42,2.18,2.64,3.68,3.61.18.12.22.35.11.52Z"/>
        <g>
          <path class="cls-2" d="M39.76,67.28c-1.65.18-3.66.26-5.95.07-2.07-.17-3.88-.53-5.38-.92,3.72,22.32,6.45,38.65,6.5,38.92,0,.06.04.21.12.38,0,0,.07.13.17.25.06.07,3.47,3.42,10.5,2.9.63-.05,1.14-.11,1.45-.16,13.76-2.67,27.53-5.34,41.29-8.02l-6.51-41.13c-14.07,2.57-28.13,5.14-42.2,7.72ZM32.98,78.56s-.04,0-.05,0c-.19,0-.35-.12-.39-.31l-1.52-8.45c-.04-.21.1-.4.31-.44.2-.04.4.1.44.31l1.52,8.45c.04.21-.1.4-.3.44ZM38.34,104.35s-.04,0-.05,0c-.19,0-.35-.12-.39-.31l-2.53-14.05c-.04-.21.1-.4.3-.44.21-.04.4.1.44.31l2.53,14.05c.04.21-.1.4-.31.44ZM47.69,106.22s-.04,0-.05,0c-.19,0-.35-.12-.39-.31l-6.57-36.57c-.04-.21.1-.4.3-.44.21-.04.4.1.44.31l6.57,36.57c.04.2-.1.4-.31.44ZM54.28,89.79c-.21-.93,1.7-1.6,1.7-2.16,0-.29-1.73-3.37-2.02-4.07-1.47-3.57-4.59-14.47,2.32-14,4.47.3,6.55,10.23,6.7,13.74.04,1.06-.35,2.76-.3,3.53.02.24.59.6.07,1.01-.34.26-1.47-.08-2-.06-1.35.05-2.96.2-4.15.85-.73.39-1.32,1.27-2.3,1.18ZM74.31,98.69c-1.12,1.92-5.23,3.15-7.15,2-.42-.25-1.09-.88-.19-.93.57-.03.89.21,1.4.22,2.32.03,4.2-.83,6.12-2,.11.34-.03.47-.18.72ZM76.79,86.32c-.25,3.32-.77,8.05-3.55,10.23-5.24,4.1-10.69.39-13.44-4.53-.5.64-1.31,1.83-2.22,1.17l2.78-4.17c.55.23.25,1.48.45,1.67,3.96.85,9.24.46,12.57-2.04.45-.34,2.61-2.34,2.14-2.88l-.89-.35c-.25-.75,1.72-.36,2.1-.26,2.1.54,2.98,2.18.07,1.16ZM77.83,82.06c-1.69.34-3.35.81-4.73,1.88.83,1.78-1.08,3.9-2.67,4.5-.72.27-2.64.59-2.5-.6.02-.21,1.72-.59,2.13-.8,2.78-1.42,2.17-4.53-1.06-3.69-1.35.35-2.3,1.53-3.56,2.04-.07-1.42,1.47-2.61,2.63-3.12.48-.21,2.17-.49,2.17-.74-.32-.53-.59-1.12-.81-1.7-1.23-3.24-4.3-11.91-.5-14.16,3.37-2,5.99,1.86,7.09,4.56,1.34,3.28,2,7.45,1.8,10.97.52-.08,1.04-.03,1.52.16,1.36.53-1.28.66-1.52.71Z"/>
          <path class="cls-2" d="M40.02,110.02c-1.47-.41-2.46-.69-3.71-1.39-.99-.56-1.35-.94-1.58-.8-.58.35.04,3.77,2.14,6.17,2.84,3.24,7.17,3.8,9.1,4.05,1.8.23,3.29.16,4.26.07,3.66-.79,7.32-1.58,10.98-2.37-.27-.45-.65-.98-1.19-1.51-1.21-1.19-2.25-1.39-2.21-1.84.05-.62,2.08-1.2,3.89-1.1,2.64.15,4.7,1.74,5.97,3.05,6.39-1.38,12.77-2.76,19.16-4.13.36-.21,2.81-1.72,3.22-4.64.21-1.53-.23-2.76-.5-3.36-23.13,4.99-40.18,8.08-43.86,8.3-3.24.19-5.69-.5-5.69-.5ZM37.88,112.87c-.08.08-.18.12-.28.12-.09,0-.19-.04-.26-.1-.99-.94-1.1-2.98-1.11-3.06-.01-.21.15-.39.36-.4.21,0,.39.15.39.36.03.5.23,1.94.87,2.55.15.14.16.38.02.53ZM46.88,112.33c.02-.21.19-.37.4-.35.21.02.37.19.35.4-.04.63.02,2.42.79,3.12.15.14.17.38.03.53-.08.08-.18.12-.28.12-.09,0-.18-.03-.25-.09-1.21-1.08-1.05-3.62-1.05-3.73Z"/>
          <path class="cls-2" d="M41.35,137.37c-.18-.41,2.87-2.34,2.87-2.34,0,0-1.56-.16-2.55-.88-.97-.72-1.37-1.98-1.15-2.16.29-.24,1.48,1.54,3.32,1.49.21,0,.7-.02,1.19-.32,1.17-.69,1.26-2.23,1.27-2.44-.45.05-1.38.09-2.41-.35-.42-.18-1.33-.57-1.91-1.55-.52-.86-.85-2.32-.2-3.01.72-.76,2.6-.53,2.68-.51-.14-.15-1.14-1.18-2.44-1.02-1.42.17-2.68,1.68-2.63,3.62-.12.6-.38,1.03-.61,1.03-.27,0-.48-.62-.52-1.05-.06-.71.31-1.26.47-1.47-.46-.1-1.11-.15-1.76.12-2.15.9-2.3,4.62-2.34,5.45-.15,3.8,1.8,8.29,5.72,10.68.72.44,3.86,2.24,7.61,1.49,1.09-.22,3.8-.76,4.39-2.68.54-1.75-.92-4.02-2.71-4.93-3.39-1.72-8.07,1.36-8.3.85Z"/>
          <path class="cls-2" d="M75.56,137.44c.31.05.65-1.14.94-1.06.3.08.05,1.3.26,2.81.25,1.8,1.11,3.59,1.58,3.53.42-.06.05-1.51.85-3.26.87-1.91,2.19-2.09,3.75-4,1.08-1.31.9-1.77,2.12-4.25,1.31-2.65,2.81-5.67,5.66-7.68,1-.71,2.75-1.69,5.42-2.09-1.32-1.05-2.47-1.34-3.26-1.42-3.87-.37-8.23,3.59-10.48,10.02-1.05,3.76-1.58,4.86-1.84,4.81-.34-.06-.14-2.05-.58-2.14-.59-.12-1.5,3.16-1.91,3.06-.27-.07-.42-1.62.27-2.97.65-1.3,1.66-1.64,1.52-2.02-.18-.5-2.21-.7-3.5.26-2.26,1.69-1.39,6.3-.8,6.4Z"/>
          <path class="cls-2" d="M90.36,125.74l6.18,2.65.57-1.88s-4.9-2.34-4.97-2.34-1.77,1.56-1.77,1.56Z"/>
          <path class="cls-2" d="M93.44,123.62l3.88,1.86c.16-.39.36-1.09.05-1.63-.49-.85-2.16-1.16-3.93-.23Z"/>
          <path class="cls-2" d="M88.38,128.27l6.42,2.97,1.24-1.89-6.27-2.96s-1.36,1.82-1.4,1.88Z"/>
          <polygon class="cls-2" points="86.64 131.28 92.66 134.01 94.16 132.25 87.77 129.16 86.64 131.28"/>
          <polygon class="cls-2" points="85.26 134.47 90 136.54 91.84 134.63 86.46 132.2 85.26 134.47"/>
          <path class="cls-2" d="M83.28,136.8l4.09,2,1.93-1.54-4.57-2.19s-1.38,1.68-1.45,1.73Z"/>
          <polygon class="cls-2" points="81.31 138.98 85.46 140.93 86.84 139.53 82.69 137.74 81.31 138.98"/>
          <path class="cls-2" d="M80.25,141.3c.21.26.54.6,1.01.89.76.48,1.51.6,1.91.63l1.45-1.04-4.02-1.93c-.12.48-.24.97-.35,1.45Z"/>
          <path class="cls-2" d="M80.27,143.4c.35.22.81.17,1.1-.12l-1.49-.91c-.12.39.04.81.39,1.03Z"/>
          <path class="cls-3" d="M121.87,81.53c.07-.02.15-.06.21-.09.45-.22.85-.51,1.2-.85-.35.33-.75.62-1.2.84-.07.03-.14.07-.21.1ZM103.75,55.72c-.22.28-.41.59-.57.89.17-.31.35-.61.57-.89ZM101.88,66.92c-.09.44-.12.88-.12,1.31,0-.43.04-.86.12-1.31ZM61.94,118.66s-.1.04-.13.07c.03-.02.08-.04.13-.06.11-.04.21-.03.29,0-.08-.02-.18-.03-.29,0ZM25.08,66.02h.02s-.02,0-.02,0h0ZM12.26,115.63c.68.27,1.5.49,2.42.49.41,0,.81-.05,1.21-.13-.4.08-.8.12-1.21.12-.93,0-1.75-.21-2.42-.48ZM12.26,115.63c-.27-.12-.52-.23-.74-.35.21.12.46.24.74.35ZM10.16,115.3c.37-.02.72-.09,1.05-.19.1.06.2.12.31.17-.12-.07-.21-.12-.31-.18-.33.11-.68.17-1.05.2Z"/>
          <path class="cls-3" d="M124.72,75.03l-2.06-5.27c.22-.12.44-.26.65-.4.13-.09.26-.18.39-.28.37-.29.74-.61,1.07-.96,1.98-2.07,3-5.03,1.53-7.27-.09-.14-.19-.28-.3-.41-.11-.13-.22-.25-.35-.36-.24-.23-.51-.43-.8-.6.17-.91.13-2.09-.45-3.5l-.11-.26-.16-.25c-.56-.88-1.32-1.56-2.2-2.02-.05-.39-.14-.78-.28-1.14-.74-1.86-2.61-3.14-5.05-3.4-.25-.03-.51-.04-.77-.04-.77,0-1.51.12-2.22.34l-1.82-4.68c1.54-3.7,1.49-9.19-.26-13.63-.93-2.36-2.55-4.79-4.5-6.78-.14-.15-.28-.28-.42-.42-1.28-1.24-2.69-2.28-4.13-2.99-1.28-.62-2.6-.98-3.86-.98-.65,0-1.27.09-1.85.27-.2.07-.39.13-.58.22-2.14.94-3.66,3.11-4.37,6.29-1.1,4.87-.23,12.46,4.26,17.61.61.7,3.53,3.86,7.12,4.86.69,1.18,1.51,3.33,2.12,5.36-.28.17-.55.36-.8.57-.09.08-.18.17-.27.26-.09.09-.17.18-.26.27-.08.09-.17.18-.23.28-.22.28-.41.59-.57.89-.16.31-.29.64-.39.97-.07.22-.12.44-.17.67-.41,2.03,0,4.26.55,6.02-.55.55-1.05,1.37-1.29,2.65-.08.45-.12.88-.12,1.31,0,.79.13,1.56.36,2.3-.08.16-.17.31-.26.46-3.43,5.78-10.11,4.08-13.79,2.55-.24-.1-.46-.21-.7-.31h0l-2.37-15.01c.47-1.27.65-2.57.5-3.83-.31-2.82-2.04-4.71-3.53-6.12-.22-.2-.43-.39-.63-.57-.24-.22-.5-.44-.75-.65-.27-.21-.53-.41-.8-.6-1.45-4.73-8.05-26.22-8.05-26.22l-.13-.26c-.79-1.53-1.84-2.84-3.1-3.88-1.75-1.45-4-2.42-10.25-3.12-1.52-.17-3.08-.3-4.63-.38.26-.42.45-.89.59-1.41.35-1.33.25-3.09.03-4.29-.17-.98-.46-1.94-.88-2.85-.39-.85-.84-1.59-1.12-1.96-1.01-1.38-2.71-2.09-5.05-2.09s-5.16.61-8.18,1.26l-.31.07c-3.53.75-5.66,1.21-7.18,1.74-1.42.49-3.18,1.32-4.14,3.41-.9,1.96-.75,4.16-.48,5.68.15.8.6,3.24,2.35,4.96.2.19.41.37.63.53l.66,1.24c-1.43,1.89-2.51,3.31-3.17,4.18l-.53.69c-3.43,4.51-5.32,6.98-5.92,10.98-.1.64-.16,1.33-.17,2.07-.17,5.73,2.09,18.13,4,27.53l.35,1.68.02.02.15.94c.74,4.39,1.43,8.53,2.07,12.37-6.95.67-11.5,4.01-14.13,6.75-2.57,2.69-3.8,5.28-4.1,5.95-1.42.46-2.67,1.18-3.39,2.05-.57.69-.87,1.49-.87,2.31-.13.09-.27.18-.4.28-.4.29-.79.62-1.17.99-2.88,2.85-4.02,7.39-2.76,11.06.25.74,1.66,4.43,4.66,4.43h.05c.62.72,1.41,1.36,2.44,1.75.68.26,1.41.41,2.13.41.12,0,.25,0,.37-.02.37-.02.72-.09,1.05-.2.1.06.2.12.31.18.21.12.46.23.74.35.68.27,1.5.48,2.42.48.41,0,.81-.04,1.21-.12.13-.02.26-.06.4-.1,1.69-.48,3.2-1.76,3.96-3.33.3-.63.46-1.27.48-1.9.99-.92,1.71-2.22,2.08-3.47,1.11-3.88-1.28-7.26-2.04-8.21-.13-.17-.27-.32-.41-.48.19-.69.26-1.75-.47-2.96-.22-.36-.52-.74-.89-1.1-.07-.07-.15-.15-.23-.22-.16-.15-.32-.29-.5-.43,1.06-1.72,4.67-6.76,10.43-6.16,1.82,10.9,2.98,17.82,3.05,18.25.03.15.06.31.1.46-.22.37-.4.84-.49,1.4-.31,2.04.75,5.73,3.09,8.39,3.64,4.16,8.87,4.83,11.1,5.11.94.12,1.91.19,2.86.19.54,0,1.08-.02,1.61-.06-1.03.79-2.38,1.51-3.29,1.93-.63-.64-2.13-1.88-4.26-1.88-.21,0-.41.02-.61.03-.17.02-.35.05-.52.09-.35.07-.68.18-1,.32-.16.07-.31.15-.46.23-.31.17-.6.36-.87.58-.27.22-.53.46-.76.73-.36,0-.73.05-1.08.12-.35.07-.7.18-1.02.32-.22.09-.45.21-.68.34-.12.07-.23.15-.35.22-.23.17-.46.35-.69.56-1.23,1.18-2.3,3.25-2.44,6.87-.21,5.13,2.61,10.39,7.01,13.07,1.26.77,3.87,2.07,7.17,2.07.81,0,1.61-.08,2.4-.24,1.35-.27,5.47-1.1,6.58-4.71.83-2.67-.5-5.5-2.49-7.27-.26-.23-.54-.45-.82-.65-.28-.19-.57-.36-.87-.51-.15-.07-.31-.15-.46-.22-.31-.13-.64-.25-.98-.34-.17-.04-.33-.08-.51-.12h0c.22-.57.32-1.09.37-1.5h0c.55-.25,1.39-.65,2.4-1.23.37-.22.78-.47,1.19-.74.27-.18.55-.38.84-.59.29-.22.58-.44.88-.67,2.52-2.01,5.25-4.99,6.91-9.23.02-.02.07-.13.19-.21.03-.02.08-.05.13-.07.11-.03.21-.02.29,0,.12.02.19.09.21.1,3.86,3.37,8.34,11.93,9.42,14.06-.32,1.68-.17,3.34.1,4.46.36,1.45,1,2.28,1.69,2.76.28,1.61,1.35,5.85,4.63,5.88.1.07.19.14.3.21.65.4,1.4.61,2.16.61.41,0,.83-.07,1.22-.18.39-.12.76-.3,1.1-.53h.12c.67,0,1.32-.21,1.87-.6l1.46-1.04c.31-.23.58-.51.79-.83.16-.11.31-.23.45-.37l1.37-1.4c.21-.21.38-.44.52-.68l1.66-1.33c.24-.19.44-.41.62-.66h0s.05-.04.07-.07c.12-.08.22-.18.32-.28l1.84-1.91s.02-.02.03-.02c.34-.18.65-.42.92-.73l1.5-1.75c.24-.27.42-.58.55-.91.12-.13.23-.27.34-.43l1.23-1.89c.17-.24.28-.5.37-.78.22-.3.41-.64.51-1.01l.56-1.88c.08-.26.12-.55.13-.81.63-1.57.57-3.12-.15-4.39-.22-.38-.5-.72-.81-1.01-.05-.89-.48-1.74-1.2-2.31-1.54-1.22-3.2-1.93-4.95-2.1-.27-.02-.54-.03-.81-.03-4.91,0-9.62,4.07-12.36,10.53-.45-.11-.94-.17-1.46-.17-.18,0-.41,0-.66.03-.94-1.87-3.86-7.49-6.43-10.37,5.35-1.16,10.69-2.31,16.04-3.46l.51-.12.45-.26c.24-.14.62-.38,1.07-.74.22-.17.46-.38.71-.61,1.23-1.15,2.62-2.99,2.99-5.6.24-1.72-.02-3.48-.74-5.11l-1.06-2.38-.06.02-2.47-15.61h0c.34.08.71.17,1.12.26,1.2.25,2.66.45,4.25.45.98,0,2.04-.07,3.12-.26,4.15-.7,7.72-2.8,10.62-6.22.04-.05.08-.1.12-.15.94.41,2.02.73,3.16.73.72,0,1.41-.12,2.06-.36.27-.1.53-.22.76-.34.17.44.34.89.5,1.32.82,2.17,2.9,3.62,5.17,3.62.4,0,.79-.04,1.17-.13.2-.04.38-.1.57-.17.11-.04.22-.08.32-.14.07-.02.14-.07.21-.1.45-.22.85-.51,1.2-.84,1.4-1.32,2.01-3.39,1.49-5.38l-.05-.18ZM18.6,96.3c.36.6.47,1.2.31,1.78l-.22.8.55.62c.12.13.24.27.36.41.64.79,2.66,3.66,1.75,6.84-.31,1.08-.92,2.11-1.64,2.77l-.46.43-.02.63c-.02.43-.13.87-.34,1.31-.57,1.18-1.75,2.18-3.01,2.54-.39.11-.79.17-1.19.17-1.13,0-2.09-.43-2.7-.79l-.59-.35-.65.21c-.3.09-.62.14-.97.14-.53,0-1.08-.11-1.58-.31-.7-.27-1.31-.7-1.84-1.33l-.46-.54-.71.02h-.03c-2.01,0-3.11-3.06-3.24-3.41-1.07-3.14-.08-7.04,2.4-9.49.4-.4.85-.76,1.35-1.09l.68-.45v-.82c0-.46.17-.93.51-1.33.81-.98,3-1.99,5.26-1.99.21,0,.44,0,.65.02,2.81.24,5.1,2.02,5.82,3.21ZM100.49,80.94c-6.27,2.64-12.11.41-13.45-.13.94,5.99,1.89,11.98,2.84,17.97l.25,1.58.42-.09.55,1.26c.61,1.37.83,2.85.63,4.29-.49,3.52-3.21,5.38-4.04,5.87l-.23.14-.27.06c-6.03,1.31-12.06,2.6-18.09,3.91,1.38,1.59,2.89,3.55,4.35,5.89,1.3,2.1,2.31,4.1,3.09,5.88.17.22.84,1.01,1.99,1.22,1.58.29,2.74-.74,2.87-.86,2.52-5.92,6.72-9.61,10.97-9.61.22,0,.45,0,.67.03,1.45.14,2.84.74,4.15,1.78.38.3.6.74.64,1.22l.04.6.43.41c.22.2.39.43.53.67.49.85.51,1.94.07,3.07l-.1.25v.26c0,.15-.03.3-.07.44l-.57,1.87c-.06.19-.15.37-.27.54l-.16.2-.07.25c-.05.16-.12.3-.19.41l-1.24,1.89c-.05.07-.11.15-.18.23l-.19.21-.11.26c-.07.17-.17.34-.29.48l-1.51,1.75c-.13.15-.3.28-.49.38l-.22.12-.17.17s-.02.02-.02.02l-1.83,1.9s-.12.11-.21.17l-.2.15-.13.2c-.1.13-.21.25-.33.35l-1.66,1.33-.23.18-.15.26c-.07.13-.17.26-.26.36l-1.38,1.4c-.07.07-.15.13-.24.2l-.23.16-.16.24c-.12.17-.26.31-.42.44l-1.45,1.04c-.29.21-.63.31-.98.32h0s-.04,0-.07,0l-.5-.02-.41.28c-.44.3-.94.46-1.46.46-.48,0-.96-.14-1.37-.39-.07-.04-.12-.08-.19-.13l-.4-.3h-.5c-2.17-.02-2.96-3.55-3.16-4.63l-.11-.61-.51-.36c-.49-.35-.85-.98-1.08-1.89-.2-.81-.34-2.07-.16-3.37.26-.22.34-.59.18-.9h0c-.07-.14-.41-.82-.94-1.84-.17-.31-6.21-11.8-9.23-13.31-.25-.12-.87-.44-1.58-.28-.6.14-.99.55-1.15.71-.55.58-.7,1.24-.74,1.4-.47,1.79-3.5,5.72-6.75,8.17-1.34,1.01-3.19,2-3.77,2.28-.66.32-1.07.47-1.08.47-.12.04-.22.12-.31.2-.18.2-.25.5-.16.77.02.07.07.14.12.2h0c-.05.28-.12.61-.26.96l-.61,1.65,1.73.36c.55.11,1.08.29,1.56.54,2.28,1.16,4.2,4.1,3.42,6.64-.76,2.46-3.47,3.27-5.44,3.67-.69.14-1.39.21-2.1.21-2.93,0-5.25-1.15-6.39-1.85-3.94-2.4-6.46-7.11-6.28-11.72.14-3.53,1.26-5.83,3.23-6.66.48-.2,1-.31,1.54-.31h.67s.45-.51.45-.51c.71-.82,1.65-1.33,2.65-1.45.15-.02.3-.02.44-.02,1.64,0,2.81,1.03,3.24,1.48,0,.05.02.09.03.13.06.14.16.25.27.33.12.08.27.13.43.13.09,0,.19-.02.29-.06.05-.02.14-.07.26-.12.26-.12.37-.17.52-.24,3.16-1.5,4.74-2.95,4.74-2.95,1.09-1.01,2.05-2.3,1.84-2.56-.14-.17-.69.2-1.99.48-.64.14-1.17.2-1.52.22-.03,0-.07.02-.1.02h-.1c-.65.07-1.32.1-1.98.1-.89,0-1.79-.06-2.67-.17-2.06-.26-6.88-.88-10.15-4.62-2.13-2.42-2.95-5.72-2.73-7.16.06-.32.16-.62.31-.87l.31-.55-.17-.61c-.03-.12-.06-.22-.07-.3h0c-.07-.4-1.32-7.89-3.3-19.75-1.56-.02-6.21.16-10.06,3.54-1.34,1.18-2.25,2.45-2.85,3.51-1.19-.69-2.62-1.21-4.12-1.33-.26-.02-.51-.03-.78-.03-.37,0-.75.02-1.14.07.6-1.08,1.67-2.8,3.34-4.54,1.98-2.05,3.92-3.24,4.9-3.77,3.91-2.17,7.7-2.54,9.86-2.57-.71-4.28-1.5-8.99-2.33-14.03l-.16-.94-.14-.84-.06-.02-.18-.89c-2.72-13.37-4.1-22.77-3.97-27.19.02-.68.07-1.31.16-1.88.55-3.62,2.25-5.85,5.64-10.29l.52-.7c.66-.87,1.75-2.29,3.17-4.18l.59-.77-.46-.85-.66-1.24-.17-.3-.27-.21c-.17-.12-.32-.25-.46-.4-1.41-1.37-1.8-3.47-1.92-4.16-.24-1.29-.37-3.17.36-4.77.71-1.56,2.04-2.19,3.26-2.61,1.43-.5,3.53-.94,7.01-1.69l.3-.06c2.95-.63,5.73-1.22,7.86-1.22,1.83,0,3.12.49,3.83,1.46.19.25.6.89.95,1.68.36.8.62,1.65.77,2.5.18,1,.28,2.55,0,3.65-.1.37-.23.7-.42,1-.03.04-.46.67-.19,1.38.22.55.78.92,1.4.91,1.56.08,3.09.21,4.55.37,5.88.65,7.92,1.52,9.46,2.79,1.11.91,2.02,2.06,2.72,3.41l.07.13c.55,1.79,6.63,21.56,8.02,26.08l.15.49.41.29c.5.36.97.75,1.41,1.16,1.51,1.37,3.38,3.08,3.68,5.73.12,1.03-.03,2.09-.42,3.14l-.14.37.07.39,2.33,14.67c.06.28.12.57.19.85.4.25,8.18,4.79,14.01,1.09.84-.53,1.89-1.4,2.85-2.84.64,1.14,1.48,2.14,2.33,2.9.21.17.77.65,1.57,1.15-1.1,1.3-3.14,3.33-6.28,4.65ZM121.4,80.09c-.49.25-1.04.38-1.61.38-1.65,0-3.16-1.06-3.76-2.64-.17-.44-.33-.89-.5-1.33l-.61-1.6-1.51.79c-.19.1-.38.19-.58.26-.48.17-1,.26-1.54.26-2.52,0-4.84-1.99-5.1-2.22-1.71-1.52-3.36-4.1-2.84-6.79.16-.82.45-1.45.87-1.85l.65-.65-.27-.89c-.78-2.52-1.26-5.91.89-7.78.17-.15.37-.29.59-.41l1-.6-.33-1.13c-.54-1.81-1.42-4.25-2.27-5.69l-.31-.53-.59-.17c-3.19-.89-5.88-3.81-6.38-4.39-1.89-2.17-3.24-5.01-3.89-8.22-.56-2.76-.58-5.69-.04-8.07.42-1.88,1.37-4.3,3.5-5.24.56-.24,1.17-.36,1.83-.36,1.98,0,4.3,1.13,6.55,3.17,2.16,1.97,3.97,4.54,4.96,7.05,1.57,3.97,1.68,9.11.27,12.5l-.23.56.22.57,1.81,4.67.51,1.31,1.33-.41c.61-.18,1.22-.28,1.79-.28.21,0,.41.02.6.03,1.86.21,3.28,1.13,3.81,2.45.09.25.16.51.19.79l.1.79.7.36c.65.34,1.21.85,1.62,1.49l.08.13.06.15c.39.94.51,1.83.36,2.66l-.19,1.04.93.53c.39.22.7.52.94.89,1.26,1.92-.32,4.88-2.58,6.44-.16.12-.34.22-.54.33l-1.14.65.48,1.22,2.04,5.18.03.1c.47,1.81-.33,3.71-1.91,4.49Z"/>
        </g>
      </g>
    </g>
  </g>
</svg>